Coordinates
version=1
nRows=21
nColumns=22
inDegrees=yes

Units are S.I. units (second, meters, Newtons, ...)
If the header above contains a line with 'inDegrees', this indicates whether rotational values are in degrees (yes) or radians (no).

endheader
time	pelvis_tilt	pelvis_list	pelvis_rotation	pelvis_tx	pelvis_ty	pelvis_tz	hip_flexion_r	hip_adduction_r	hip_rotation_r	knee_angle_r	ankle_angle_r	subtalar_angle_r	hip_flexion_l	hip_adduction_l	hip_rotation_l	knee_angle_l	ankle_angle_l	subtalar_angle_l	lumbar_extension	lumbar_bending	lumbar_rotation
      0.01000000	     -8.61442184	     -0.22762681	     -9.51979369	     -0.99944913	      0.88153388	     -0.14987589	      6.64427739	     -5.49958406	      2.96230854	     -5.81779739	     12.17171318	      4.05869148	      5.03562756	     -7.16955555	    -11.08828763	     -7.28942877	     13.10407247	      8.43631213	      2.74936381	      0.64740353	     10.18890943
      0.02000000	     -8.61575805	     -0.22479033	     -9.54199978	     -0.99946131	      0.88152694	     -0.14980110	      6.64963514	     -5.49637402	      2.95847358	     -5.81396394	     12.17028323	      4.05872611	      5.03222418	     -7.17303385	    -11.08815764	     -7.29121369	     13.10521275	      8.43718474	      2.74500266	      0.63156615	     10.18167247
      0.03000000	     -8.60575782	     -0.19360294	     -9.61253911	     -0.99947109	      0.88153267	     -0.14966025	      6.66987599	     -5.51978780	      3.02813545	     -5.83591869	     12.16582693	      4.05923561	      5.00667728	     -7.14733461	    -11.17546065	     -7.28658804	     13.10794349	      8.44916911	      2.73384961	      0.58409605	     10.21230871
      0.04000000	     -8.60969924	     -0.19585927	     -9.65033847	     -0.99948557	      0.88152433	     -0.14956133	      6.68198051	     -5.50791539	      3.05593194	     -5.83757235	     12.17004302	      4.05955960	      5.00039342	     -7.15811982	    -11.19144795	     -7.28323530	     13.10708781	      8.44947682	      2.72856176	      0.57698687	     10.19077488
      0.05000000	     -8.61576213	     -0.19841480	     -9.69977684	     -0.99951125	      0.88151529	     -0.14943693	      6.70119883	     -5.49311595	      3.10718902	     -5.84361259	     12.16754895	      4.05836111	      4.99800461	     -7.17259526	    -11.22806125	     -7.28882827	     13.11121876	      8.44715786	      2.72391969	      0.56632992	     10.18553773
      0.06000000	     -8.61935277	     -0.19828489	     -9.72918669	     -0.99951249	      0.88150927	     -0.14935178	      6.70766246	     -5.48574296	      3.10492131	     -5.83735099	     12.16791467	      4.05825409	      4.99605852	     -7.18049610	    -11.22587093	     -7.29266247	     13.11168747	      8.44696502	      2.71950551	      0.55058733	     10.17624517
      0.07000000	     -8.64265005	     -0.20271410	     -9.79522497	     -0.99955190	      0.88147686	     -0.14920962	      6.74795173	     -5.46411662	      3.19773094	     -5.84359344	     12.15881234	      4.05164196	      5.01411258	     -7.20306537	    -11.29407000	     -7.30822290	     13.12471919	      8.44108100	      2.73317483	      0.54803917	     10.18416730
      0.08000000	     -8.65096557	     -0.20290927	     -9.82419323	     -0.99955145	      0.88146595	     -0.14914000	      6.76195335	     -5.45661925	      3.20788961	     -5.84407637	     12.15550826	      4.05005998	      5.01360720	     -7.21030718	    -11.30276614	     -7.30435534	     13.12853472	      8.44110463	      2.73331102	      0.53681075	     10.15256507
      0.09000000	     -8.66462898	     -0.20536747	     -9.85143789	     -0.99956088	      0.88144827	     -0.14906875	      6.78041454	     -5.44595997	      3.22730067	     -5.84235791	     12.15161524	      4.04861393	      5.01754401	     -7.22155443	    -11.31624194	     -7.29683664	     13.13065289	      8.44120355	      2.73664921	      0.52725734	     10.12242923
      0.10000000	     -8.71170983	     -0.21228528	     -9.89050867	     -0.99960558	      0.88138802	     -0.14897705	      6.83709162	     -5.42116248	      3.28332879	     -5.83905373	     12.13392043	      4.04058274	      5.05898551	     -7.24599630	    -11.35018542	     -7.29531488	     13.13002930	      8.44645190	      2.77509984	      0.52828176	     10.12337444
      0.11000000	     -8.72593513	     -0.21309422	     -9.90846437	     -0.99960316	      0.88136953	     -0.14892947	      6.85301515	     -5.41424320	      3.28882832	     -5.83604813	     12.13172531	      4.03908504	      5.06220727	     -7.25273518	    -11.36484966	     -7.28161730	     13.13483913	      8.44810778	      2.78042982	      0.51783542	     10.09106272
      0.12000000	     -8.75012275	     -0.21562669	     -9.92569792	     -0.99959688	      0.88133746	     -0.14888524	      6.87507094	     -5.40390268	      3.30090736	     -5.82542799	     12.12621125	      4.03778149	      5.07184425	     -7.26195768	    -11.38269759	     -7.26079411	     13.13402791	      8.45101214	      2.79891562	      0.51133279	     10.06550781
      0.13000000	     -8.78407638	     -0.21796599	     -9.94158846	     -0.99958725	      0.88129404	     -0.14884108	      6.90419192	     -5.39214094	      3.31716079	     -5.80955208	     12.11510123	      4.03619844	      5.09049620	     -7.27182647	    -11.40156922	     -7.23732061	     13.12949235	      8.45587880	      2.82991048	      0.50656350	     10.04748562
      0.14000000	     -8.82046504	     -0.21902513	     -9.95439338	     -0.99958016	      0.88124891	     -0.14880456	      6.93558264	     -5.38197142	      3.33078523	     -5.79316209	     12.10253778	      4.03411615	      5.11521205	     -7.28083446	    -11.41683848	     -7.21885624	     13.12490844	      8.46205938	      2.86565799	      0.50058882	     10.03463499
      0.15000000	     -8.82769478	     -0.22106109	     -9.96072682	     -0.99958121	      0.88124343	     -0.14877013	      6.94039831	     -5.37597703	      3.32952546	     -5.78865327	     12.10200604	      4.03406186	      5.11745508	     -7.28673284	    -11.41764583	     -7.21603124	     13.12503858	      8.46247201	      2.86401057	      0.48681970	     10.03059495
      0.16000000	     -8.86486061	     -0.22186560	     -9.96683984	     -0.99953589	      0.88119267	     -0.14873485	      6.96311288	     -5.36710070	      3.33100118	     -5.76288273	     12.09401269	      4.03252750	      5.13468751	     -7.29413775	    -11.43887204	     -7.18437919	     13.12311877	      8.46619745	      2.90830638	      0.48192766	     10.00567910
      0.17000000	     -8.91983024	     -0.22257994	     -9.96633897	     -0.99955889	      0.88112215	     -0.14871428	      7.00928824	     -5.35508567	      3.33865172	     -5.73789651	     12.06994104	      4.02787611	      5.18975301	     -7.30651065	    -11.43253870	     -7.17632916	     13.10933577	      8.47627082	      2.96200213	      0.47824813	     10.00249850
      0.18000000	     -8.92496969	     -0.22510792	     -9.96742966	     -0.99956202	      0.88111775	     -0.14867922	      7.01279014	     -5.34883655	      3.33753067	     -5.73625006	     12.06987736	      4.02774947	      5.19143366	     -7.31255426	    -11.43339575	     -7.17460870	     13.11042001	      8.47646208	      2.95903817	      0.46383677	      9.99915380
      0.19000000	     -8.95302281	     -0.22964209	     -9.96409957	     -0.99955170	      0.88107628	     -0.14865783	      7.03460754	     -5.33768279	      3.32572830	     -5.72631609	     12.06732491	      4.02343561	      5.21408242	     -7.32301900	    -11.44329132	     -7.16336756	     13.11628252	      8.47985039	      2.98521800	      0.46088949	      9.97533669
      0.20000000	     -8.95772965	     -0.23220976	     -9.96513198	     -0.99955146	      0.88106826	     -0.14861993	      7.03728332	     -5.33114597	      3.32420563	     -5.72452142	     12.06704951	      4.02321972	      5.21657614	     -7.32933197	    -11.44234035	     -7.16278483	     13.11654872	      8.48000454	      2.98246787	      0.44718268	      9.97401151
      0.21000000	     -8.96284940	     -0.23525615	     -9.96649177	     -0.99955602	      0.88105888	     -0.14858846	      7.04087250	     -5.32491233	      3.32191139	     -5.72196660	     12.06685798	      4.02287437	      5.22002430	     -7.33534314	    -11.44198153	     -7.16122602	     13.11691051	      8.48007934	      2.97911621	      0.43562692	      9.97184798
